HIERARCHY
ROOT hip
{
  OFFSET 0 90.174 2.4664
  CHANNELS 6 Xposition Yposition Zposition Zrotation Xrotation Yrotation
  JOINT abdomen
  {
    OFFSET 0 -1.186 -1.5018
    CHANNELS 6 Xposition Yposition Zposition Zrotation Xrotation Yrotation
    JOINT abdomen2
    {
      OFFSET 0 9.964 0.2134
      CHANNELS 6 Xposition Yposition Zposition Zrotation Xrotation Yrotation
      JOINT chest
      {
        OFFSET 0 13.134 -3.2573
        CHANNELS 6 Xposition Yposition Zposition Zrotation Xrotation Yrotation
        JOINT neck
        {
          OFFSET 0 20.686 -1.6905
          CHANNELS 6 Xposition Yposition Zposition Zrotation Xrotation Yrotation
          JOINT head
          {
            OFFSET 0 7.238 -0.1237
            CHANNELS 6 Xposition Yposition Zposition Zrotation Xrotation Yrotation
            End Site
            {
              OFFSET 0 0 0
            }
          }
        }
        JOINT lCollar
        {
          OFFSET 1.7069 20.075 5.0056
          CHANNELS 6 Xposition Yposition Zposition Zrotation Xrotation Yrotation
          JOINT lShldr
          {
            OFFSET 13.6458 -0.047 -4.849
            CHANNELS 6 Xposition Yposition Zposition Zrotation Xrotation Yrotation
            JOINT lForeArm
            {
              OFFSET 28.3255 -0.9759 2.2888
              CHANNELS 6 Xposition Yposition Zposition Zrotation Xrotation Yrotation
              JOINT lHand
              {
                OFFSET 22.1583 -0.53 10.8316
                CHANNELS 6 Xposition Yposition Zposition Zrotation Xrotation Yrotation
                JOINT lThumb1
                {
                  OFFSET 0.786 0.112 2.5817
                  CHANNELS 6 Xposition Yposition Zposition Zrotation Xrotation Yrotation
                  JOINT lThumb2
                  {
                    OFFSET 0.3601 -0.878 4.2331
                    CHANNELS 6 Xposition Yposition Zposition Zrotation Xrotation Yrotation
                    JOINT lThumb2_End
                    {
                      OFFSET 1.8127 -1.216 2.2227
                      CHANNELS 6 Xposition Yposition Zposition Zrotation Xrotation Yrotation
                      End Site
                      {
                        OFFSET 0.0181 -0.0122 0.0222
                      }
                    }
                  }
                }
                JOINT lCarpal1
                {
                  OFFSET 0.9571 1.114 1.7695
                  CHANNELS 6 Xposition Yposition Zposition Zrotation Xrotation Yrotation
                  JOINT lIndex1
                  {
                    OFFSET 4.1246 0.487 4.1451
                    CHANNELS 6 Xposition Yposition Zposition Zrotation Xrotation Yrotation
                    JOINT lIndex2
                    {
                      OFFSET 3.4052 -1.454 2.7682
                      CHANNELS 6 Xposition Yposition Zposition Zrotation Xrotation Yrotation
                      JOINT lIndex2_End
                      {
                        OFFSET 1.4531 -1.795 1.2713
                        CHANNELS 6 Xposition Yposition Zposition Zrotation Xrotation Yrotation
                        End Site
                        {
                          OFFSET 0.0145 -0.0179 0.0127
                        }
                      }
                    }
                  }
                  JOINT lMid1
                  {
                    OFFSET 5.6954 0.21 2.1184
                    CHANNELS 6 Xposition Yposition Zposition Zrotation Xrotation Yrotation
                    JOINT lMid2
                    {
                      OFFSET 3.9766 -1.54 2.3863
                      CHANNELS 6 Xposition Yposition Zposition Zrotation Xrotation Yrotation
                      JOINT lMid2_End
                      {
                        OFFSET 1.4042 -1.926 1.125
                        CHANNELS 6 Xposition Yposition Zposition Zrotation Xrotation Yrotation
                        End Site
                        {
                          OFFSET 0.014 -0.0193 0.0113
                        }
                      }
                    }
                  }
                }
                JOINT lCarpal2
                {
                  OFFSET 2.0956 0.66 -0.3894
                  CHANNELS 6 Xposition Yposition Zposition Zrotation Xrotation Yrotation
                  JOINT lRing1
                  {
                    OFFSET 5.0395 -0.09 2.4971
                    CHANNELS 6 Xposition Yposition Zposition Zrotation Xrotation Yrotation
                    JOINT lRing2
                    {
                      OFFSET 3.7921 -1.552 1.4806
                      CHANNELS 6 Xposition Yposition Zposition Zrotation Xrotation Yrotation
                      JOINT lRing2_End
                      {
                        OFFSET 1.4655 -1.808 0.9609
                        CHANNELS 6 Xposition Yposition Zposition Zrotation Xrotation Yrotation
                        End Site
                        {
                          OFFSET 0.0147 -0.0181 0.0096
                        }
                      }
                    }
                  }
                  JOINT lPinky1
                  {
                    OFFSET 4.9141 -1.269 0.3591
                    CHANNELS 6 Xposition Yposition Zposition Zrotation Xrotation Yrotation
                    JOINT lPinky2
                    {
                      OFFSET 3.1477 -1.685 0.8462
                      CHANNELS 6 Xposition Yposition Zposition Zrotation Xrotation Yrotation
                      JOINT lPinky2_End
                      {
                        OFFSET 0.8055 -1.585 0.7955
                        CHANNELS 6 Xposition Yposition Zposition Zrotation Xrotation Yrotation
                        End Site
                        {
                          OFFSET 0.0081 -0.0158 0.008
                        }
                      }
                    }
                  }
                }
              }
            }
          }
        }
        JOINT rCollar
        {
          OFFSET -1.7069 20.075 5.0056
          CHANNELS 6 Xposition Yposition Zposition Zrotation Xrotation Yrotation
          JOINT rShldr
          {
            OFFSET -13.6458 -0.047 -4.849
            CHANNELS 6 Xposition Yposition Zposition Zrotation Xrotation Yrotation
            JOINT rForeArm
            {
              OFFSET -28.3255 -0.9759 2.2888
              CHANNELS 6 Xposition Yposition Zposition Zrotation Xrotation Yrotation
              JOINT rHand
              {
                OFFSET -22.1583 -0.53 10.8316
                CHANNELS 6 Xposition Yposition Zposition Zrotation Xrotation Yrotation
                JOINT rThumb1
                {
                  OFFSET -0.786 0.112 2.5817
                  CHANNELS 6 Xposition Yposition Zposition Zrotation Xrotation Yrotation
                  JOINT rThumb2
                  {
                    OFFSET -0.3601 -0.878 4.2331
                    CHANNELS 6 Xposition Yposition Zposition Zrotation Xrotation Yrotation
                    JOINT rThumb2_End
                    {
                      OFFSET -1.8127 -1.216 2.2227
                      CHANNELS 6 Xposition Yposition Zposition Zrotation Xrotation Yrotation
                      End Site
                      {
                        OFFSET -0.0181 -0.0122 0.0222
                      }
                    }
                  }
                }
                JOINT rCarpal1
                {
                  OFFSET -0.9571 1.114 1.7695
                  CHANNELS 6 Xposition Yposition Zposition Zrotation Xrotation Yrotation
                  JOINT rIndex1
                  {
                    OFFSET -4.1246 0.487 4.1451
                    CHANNELS 6 Xposition Yposition Zposition Zrotation Xrotation Yrotation
                    JOINT rIndex2
                    {
                      OFFSET -3.4052 -1.454 2.7682
                      CHANNELS 6 Xposition Yposition Zposition Zrotation Xrotation Yrotation
                      JOINT rIndex2_End
                      {
                        OFFSET -1.4531 -1.795 1.2713
                        CHANNELS 6 Xposition Yposition Zposition Zrotation Xrotation Yrotation
                        End Site
                        {
                          OFFSET -0.0145 -0.018 0.0127
                        }
                      }
                    }
                  }
                  JOINT rMid1
                  {
                    OFFSET -5.6954 0.21 2.1184
                    CHANNELS 6 Xposition Yposition Zposition Zrotation Xrotation Yrotation
                    JOINT rMid2
                    {
                      OFFSET -3.9766 -1.54 2.3863
                      CHANNELS 6 Xposition Yposition Zposition Zrotation Xrotation Yrotation
                      JOINT rMid2_End
                      {
                        OFFSET -1.4042 -1.926 1.125
                        CHANNELS 6 Xposition Yposition Zposition Zrotation Xrotation Yrotation
                        End Site
                        {
                          OFFSET -0.014 -0.0193 0.0113
                        }
                      }
                    }
                  }
                }
                JOINT rCarpal2
                {
                  OFFSET -2.0956 0.66 -0.3894
                  CHANNELS 6 Xposition Yposition Zposition Zrotation Xrotation Yrotation
                  JOINT rRing1
                  {
                    OFFSET -5.0395 -0.09 2.4971
                    CHANNELS 6 Xposition Yposition Zposition Zrotation Xrotation Yrotation
                    JOINT rRing2
                    {
                      OFFSET -3.7921 -1.552 1.4806
                      CHANNELS 6 Xposition Yposition Zposition Zrotation Xrotation Yrotation
                      JOINT rRing2_End
                      {
                        OFFSET -1.4655 -1.808 0.9609
                        CHANNELS 6 Xposition Yposition Zposition Zrotation Xrotation Yrotation
                        End Site
                        {
                          OFFSET -0.0147 -0.0181 0.0096
                        }
                      }
                    }
                  }
                  JOINT rPinky1
                  {
                    OFFSET -4.9141 -1.269 0.3592
                    CHANNELS 6 Xposition Yposition Zposition Zrotation Xrotation Yrotation
                    JOINT rPinky2
                    {
                      OFFSET -3.1477 -1.685 0.8462
                      CHANNELS 6 Xposition Yposition Zposition Zrotation Xrotation Yrotation
                      JOINT rPinky2_End
                      {
                        OFFSET -0.8055 -1.585 0.7955
                        CHANNELS 6 Xposition Yposition Zposition Zrotation Xrotation Yrotation
                        End Site
                        {
                          OFFSET -0.0081 -0.0158 0.008
                        }
                      }
                    }
                  }
                }
              }
            }
          }
        }
      }
    }
  }
  JOINT lThigh
  {
    OFFSET 8.367 -8.2066 0.5982
    CHANNELS 6 Xposition Yposition Zposition Zrotation Xrotation Yrotation
    JOINT lShin
    {
      OFFSET 2.1923 -43.463 -0.4932
      CHANNELS 6 Xposition Yposition Zposition Zrotation Xrotation Yrotation
      JOINT lFoot
      {
        OFFSET 0.7333 -45.8593 -2.6451
        CHANNELS 6 Xposition Yposition Zposition Zrotation Xrotation Yrotation
        End Site
        {
          OFFSET 2.6618 -4.2699 12.3931
        }
      }
    }
  }
  JOINT rThigh
  {
    OFFSET -8.367 -8.2066 0.5982
    CHANNELS 6 Xposition Yposition Zposition Zrotation Xrotation Yrotation
    JOINT rShin
    {
      OFFSET -2.1923 -43.463 -0.4931
      CHANNELS 6 Xposition Yposition Zposition Zrotation Xrotation Yrotation
      JOINT rFoot
      {
        OFFSET -0.7333 -45.8593 -2.6451
        CHANNELS 6 Xposition Yposition Zposition Zrotation Xrotation Yrotation
        End Site
        {
          OFFSET -2.6618 -4.2699 12.3931
        }
      }
    }
  }
}
MOTION
Frames:	4
Frame Time:	0.0333333
0 90.174 2.4664 0 0 -0 0 -1.186 -1.5018 0 0 -0 0 9.964 0.2134 0 0 -0 0 13.134 -3.2573 0 0 -0 0 20.686 -1.6905 0 0 -0 0 7.238 -0.1237 0 0 -0 1.7069 20.075 5.0056 0 0 -0 13.6458 -0.047 -4.849 1.66051 0.0835086 5.75766 28.3255 -0.9759 2.2888 -0.0175111 0.895433 15.7816 22.1583 -0.53 10.8316 7.95139e-016 -1.98785e-016 -0 0.786 0.112 2.5817 5.46658e-016 -3.97569e-016 -0 0.3601 -0.878 4.2331 5.96354e-016 0 -0 1.8127 -1.216 2.2227 3.97569e-016 1.98785e-016 9.54166e-015 0.9571 1.114 1.7695 1.49089e-016 -3.97569e-016 -0 4.1246 0.487 4.1451 6.4605e-016 0 3.18055e-015 3.4052 -1.454 2.7682 5.96354e-016 0 3.18055e-015 1.4531 -1.795 1.2713 8.94531e-016 -1.98785e-016 6.36111e-015 5.6954 0.21 2.1184 6.4605e-016 0 3.18055e-015 3.9766 -1.54 2.3863 5.96354e-016 0 3.18055e-015 1.4042 -1.926 1.125 8.94531e-016 -1.98785e-016 6.36111e-015 2.0956 0.66 -0.3894 1.49089e-016 -3.97569e-016 -0 5.0395 -0.09 2.4971 6.4605e-016 0 3.18055e-015 3.7921 -1.552 1.4806 5.96354e-016 0 3.18055e-015 1.4655 -1.808 0.9609 8.94531e-016 -1.98785e-016 6.36111e-015 4.9141 -1.269 0.3591 6.4605e-016 0 3.18055e-015 3.1477 -1.685 0.8462 5.96354e-016 0 3.18055e-015 0.8055 -1.585 0.7955 8.94531e-016 -1.98785e-016 6.36111e-015 -1.7069 20.075 5.0056 0 0 -0 -13.6458 -0.047 -4.849 -1.4496 0.0636048 -5.0245 -28.3255 -0.9759 2.2888 -1.74811 1.20616 -16.8394 -22.1583 -0.53 10.8316 -1.19271e-015 1.98785e-016 -3.18055e-015 -0.786 0.112 2.5817 -3.97569e-016 1.98785e-016 -3.18055e-015 -0.3601 -0.878 4.2331 -2.98177e-016 1.98785e-016 -3.18055e-015 -1.8127 -1.216 2.2227 -2.98177e-016 3.97569e-016 -0 -0.9571 1.114 1.7695 4.96962e-016 0 -6.36111e-015 -4.1246 0.487 4.1451 -9.93923e-017 3.97569e-016 -0 -3.4052 -1.454 2.7682 -8.94531e-016 5.96354e-016 -0 -1.4531 -1.795 1.2713 -3.97569e-016 3.97569e-016 -0 -5.6954 0.21 2.1184 -9.93923e-017 3.97569e-016 -0 -3.9766 -1.54 2.3863 -8.94531e-016 5.96354e-016 -0 -1.4042 -1.926 1.125 -3.97569e-016 3.97569e-016 -0 -2.0956 0.66 -0.3894 4.96962e-016 0 -6.36111e-015 -5.0395 -0.09 2.4971 -9.93923e-017 3.97569e-016 -0 -3.7921 -1.552 1.4806 -8.94531e-016 5.96354e-016 -0 -1.4655 -1.808 0.9609 -3.97569e-016 3.97569e-016 -0 -4.9141 -1.269 0.3592 -9.93923e-017 3.97569e-016 -0 -3.1477 -1.685 0.8462 -8.94531e-016 5.96354e-016 -0 -0.8055 -1.585 0.7955 -3.97569e-016 3.97569e-016 -0 8.367 -8.2066 0.5982 -4.66115 -1.03232 0.120763 2.1923 -43.463 -0.4932 0.00990601 1.55097 0.177175 0.7333 -45.8593 -2.6451 4.65196 -0.54114 -0.255042 -8.367 -8.2066 0.5982 4.66115 -1.03222 -0.120763 -2.1923 -43.463 -0.4931 -0.00990459 1.5509 -0.177176 -0.7333 -45.8593 -2.6451 -4.65196 -0.541171 0.255041 
-7.99977 41.3593 -10.8707 0 10.9996 -0 0 -1.186 -1.5018 -0.866585 -2.63666 3.06415 0 9.964 0.2134 -1.59323 -5.31566 6.09783 1.77636e-015 13.134 -3.2573 -1.59323 -5.31566 6.09783 0 20.686 -1.6905 13.997 3.60235e-005 -1.50105e-005 -3.55271e-015 7.238 -0.1237 -7.75799e-007 3.12821e-007 -3.41425e-006 1.7069 20.075 5.0056 34.4037 29.3837 -86.4492 13.6458 -0.047 -4.849 -35.9296 -15.289 -5.5634 28.3255 -0.9759 2.2888 -58.3221 -21.3561 -72.0886 22.1583 -0.53 10.8316 5.78437 53.6084 -16.1455 0.786 0.112 2.5817 6.25787e-007 -3.70256e-007 -4.44451e-007 0.3601 -0.878 4.2331 -1.90833e-014 9.54166e-015 2.74323e-014 1.8127 -1.216 2.2227 -1.90833e-014 9.54166e-015 2.50469e-014 0.9571 1.114 1.7695 3.31043e-032 -2.38542e-015 7.95139e-016 4.1246 0.487 4.1451 6.25787e-007 -3.70256e-007 -4.44452e-007 3.4052 -1.454 2.7682 -1.59028e-014 7.95139e-015 2.18663e-014 1.4531 -1.795 1.2713 -2.22639e-014 1.82882e-014 2.66371e-014 5.6954 0.21 2.1184 6.25787e-007 -3.70256e-007 -4.44452e-007 3.9766 -1.54 2.3863 -1.59028e-014 7.95139e-015 2.18663e-014 1.4042 -1.926 1.125 -2.22639e-014 1.82882e-014 2.66371e-014 2.0956 0.66 -0.3894 3.31043e-032 -2.38542e-015 7.95139e-016 5.0395 -0.09 2.4971 6.25787e-007 -3.70256e-007 -4.44452e-007 3.7921 -1.552 1.4806 -1.59028e-014 7.95139e-015 2.18663e-014 1.4655 -1.808 0.9609 -2.22639e-014 1.82882e-014 2.66371e-014 4.9141 -1.269 0.3591 6.25787e-007 -3.70256e-007 -4.44452e-007 3.1477 -1.685 0.8462 -1.59028e-014 7.95139e-015 2.18663e-014 0.8055 -1.585 0.7955 -2.22639e-014 1.82882e-014 2.66371e-014 -1.7069 20.075 5.0056 15.7632 5.23235 11.8445 -13.6458 -0.047 -4.849 65.6909 2.05818 13.7819 -28.3255 -0.9759 2.2888 -16.0227 -7.67218 17.4503 -22.1583 -0.53 10.8316 45.7553 42.797 -9.7161 -0.786 0.112 2.5817 -7.21253e-007 -1.25289e-006 3.25766e-006 -0.3601 -0.878 4.2331 -2.05099e-006 -1.63091e-006 1.93625e-006 -1.8127 -1.216 2.2227 -8.24849e-031 -1.03368e-014 -4.57205e-015 -0.9571 1.114 1.7695 -1.59028e-015 2.38542e-015 -7.95139e-016 -4.1246 0.487 4.1451 -7.21253e-007 -1.25289e-006 3.25766e-006 -3.4052 -1.454 2.7682 -2.05099e-006 -1.63091e-006 1.93625e-006 -1.4531 -1.795 1.2713 1.59028e-015 -9.54166e-015 -1.47101e-014 -5.6954 0.21 2.1184 -7.21253e-007 -1.25289e-006 3.25766e-006 -3.9766 -1.54 2.3863 -2.05099e-006 -1.63091e-006 1.93625e-006 -1.4042 -1.926 1.125 1.59028e-015 -9.54166e-015 -1.47101e-014 -2.0956 0.66 -0.3894 -1.59028e-015 2.38542e-015 -7.95139e-016 -5.0395 -0.09 2.4971 -7.21253e-007 -1.25289e-006 3.25766e-006 -3.7921 -1.552 1.4806 -2.05099e-006 -1.63091e-006 1.93625e-006 -1.4655 -1.808 0.9609 1.59028e-015 -9.54166e-015 -1.47101e-014 -4.9141 -1.269 0.3592 -7.21253e-007 -1.25289e-006 3.25766e-006 -3.1477 -1.685 0.8462 -2.05099e-006 -1.63091e-006 1.93625e-006 -0.8055 -1.585 0.7955 1.59028e-015 -9.54166e-015 -1.47101e-014 8.367 -8.2066 0.5982 11.5042 -26.7941 -26.8419 2.1923 -43.463 -0.4932 -159.85 81.1261 176.219 0.7333 -45.8593 -2.6451 3.82023 64.8344 -32.9623 -8.367 -8.2066 0.5982 -100.484 -44.3937 -128.832 -2.1923 -43.463 -0.4931 -156.532 61.9186 145.224 -0.7333 -45.8593 -2.6451 11.104 -25.9302 10.7672 
-8.01408 40.9473 -10.8261 0 8.44959 -0 0 -1.186 -1.5018 -0.777773 -1.89293 3.07871 8.88178e-016 9.964 0.2134 -1.45385 -3.82474 6.13655 -8.88178e-016 13.134 -3.2573 -1.45385 -3.82474 6.13655 0 20.686 -1.6905 13.9974 -0.401587 0.100105 0 7.238 -0.1237 -0.0885003 -0.1905 0.0829351 1.7069 20.075 5.0056 33.4004 27.3316 -85.1981 13.6458 -0.047 -4.849 -35.6703 -15.3863 -5.5281 28.3255 -0.9759 2.2888 -58.3354 -21.5508 -72.06 22.1583 -0.53 10.8316 4.16436 52.8225 -14.6825 0.786 0.112 2.5817 -6.62086e-032 4.77083e-015 7.95139e-016 0.3601 -0.878 4.2331 6.36111e-015 4.77083e-015 -3.97569e-016 1.8127 -1.216 2.2227 0 7.15625e-015 -0 0.9571 1.114 1.7695 -2.20695e-032 1.59028e-015 7.95139e-016 4.1246 0.487 4.1451 6.36111e-015 7.95139e-015 7.95139e-016 3.4052 -1.454 2.7682 -4.41391e-031 7.95139e-015 3.18055e-015 1.4531 -1.795 1.2713 1.76556e-031 3.18055e-015 -3.18055e-015 5.6954 0.21 2.1184 6.36111e-015 7.95139e-015 7.95139e-016 3.9766 -1.54 2.3863 -4.41391e-031 7.95139e-015 3.18055e-015 1.4042 -1.926 1.125 1.76556e-031 3.18055e-015 -3.18055e-015 2.0956 0.66 -0.3894 -2.20695e-032 1.59028e-015 7.95139e-016 5.0395 -0.09 2.4971 6.36111e-015 7.95139e-015 7.95139e-016 3.7921 -1.552 1.4806 -4.41391e-031 7.95139e-015 3.18055e-015 1.4655 -1.808 0.9609 1.76556e-031 3.18055e-015 -3.18055e-015 4.9141 -1.269 0.3591 6.36111e-015 7.95139e-015 7.95139e-016 3.1477 -1.685 0.8462 -4.41391e-031 7.95139e-015 3.18055e-015 0.8055 -1.585 0.7955 1.76556e-031 3.18055e-015 -3.18055e-015 -1.7069 20.075 5.0056 14.6651 2.78284 12.2221 -13.6458 -0.047 -4.849 65.882 2.12635 13.8818 -28.3255 -0.9759 2.2888 -16.0227 -7.67218 17.4503 -22.1583 -0.53 10.8316 47.1962 41.9095 -10.9259 -0.786 0.112 2.5817 1.82735e-006 3.96419e-007 6.03058e-006 -0.3601 -0.878 4.2331 -3.18055e-015 3.18055e-015 9.93923e-016 -1.8127 -1.216 2.2227 2.04676e-006 1.63886e-006 -1.93705e-006 -0.9571 1.114 1.7695 -1.59028e-015 0 -2.38542e-015 -4.1246 0.487 4.1451 1.82735e-006 3.96419e-007 6.03058e-006 -3.4052 -1.454 2.7682 -4.77083e-015 3.18055e-015 -1.78906e-015 -1.4531 -1.795 1.2713 2.04676e-006 1.63886e-006 -1.93705e-006 -5.6954 0.21 2.1184 1.82735e-006 3.96419e-007 6.03058e-006 -3.9766 -1.54 2.3863 -4.77083e-015 3.18055e-015 -1.78906e-015 -1.4042 -1.926 1.125 2.04676e-006 1.63886e-006 -1.93705e-006 -2.0956 0.66 -0.3894 -1.59028e-015 0 -2.38542e-015 -5.0395 -0.09 2.4971 1.82735e-006 3.96419e-007 6.03058e-006 -3.7921 -1.552 1.4806 -4.77083e-015 3.18055e-015 -1.78906e-015 -1.4655 -1.808 0.9609 2.04676e-006 1.63886e-006 -1.93705e-006 -4.9141 -1.269 0.3592 1.82735e-006 3.96419e-007 6.03058e-006 -3.1477 -1.685 0.8462 -4.77083e-015 3.18055e-015 -1.78906e-015 -0.8055 -1.585 0.7955 2.04676e-006 1.63886e-006 -1.93705e-006 8.367 -8.2066 0.5982 12.8885 -24.3065 -26.0638 2.1923 -43.463 -0.4932 -159.8 81.144 176.15 0.7333 -45.8593 -2.6451 6.87848 63.9421 -35.392 -8.367 -8.2066 0.5982 -98.4491 -43.8079 -125.74 -2.1923 -43.463 -0.4931 -156.916 61.1752 145.541 -0.7333 -45.8593 -2.6451 10.8189 -26.208 11.5109 
-8.02475 40.527 -10.785 0 5.87846 -0 0 -1.186 -1.5018 -0.68715 -1.13513 3.0902 1.77636e-015 9.964 0.2134 -1.31248 -2.30559 6.16843 0 13.134 -3.2573 -1.31248 -2.30559 6.16843 -8.88178e-016 20.686 -1.6905 13.9985 -0.803682 0.200281 0 7.238 -0.1237 -0.176784 -0.381249 0.165629 1.7069 20.075 5.0056 32.4582 25.2465 -84.0009 13.6458 -0.047 -4.849 -35.4108 -15.4834 -5.49234 28.3255 -0.9759 2.2888 -58.3487 -21.7456 -72.0314 22.1583 -0.53 10.8316 2.6035 52.0109 -13.2797 0.786 0.112 2.5817 -2.20695e-031 -6.36111e-015 -1.98785e-015 0.3601 -0.878 4.2331 3.13503e-007 -1.85587e-007 -2.21025e-007 1.8127 -1.216 2.2227 3.13503e-007 -1.85587e-007 -2.21025e-007 0.9571 1.114 1.7695 -2.20695e-031 -6.36111e-015 -1.98785e-015 4.1246 0.487 4.1451 6.62086e-032 -3.18055e-015 1.19271e-015 3.4052 -1.454 2.7682 3.13503e-007 -1.85587e-007 -2.21025e-007 1.4531 -1.795 1.2713 3.13503e-007 -1.85587e-007 -2.21025e-007 5.6954 0.21 2.1184 6.62086e-032 -3.18055e-015 1.19271e-015 3.9766 -1.54 2.3863 3.13503e-007 -1.85587e-007 -2.21025e-007 1.4042 -1.926 1.125 3.13503e-007 -1.85587e-007 -2.21025e-007 2.0956 0.66 -0.3894 -2.20695e-031 -6.36111e-015 -1.98785e-015 5.0395 -0.09 2.4971 6.62086e-032 -3.18055e-015 1.19271e-015 3.7921 -1.552 1.4806 3.13503e-007 -1.85587e-007 -2.21025e-007 1.4655 -1.808 0.9609 3.13503e-007 -1.85587e-007 -2.21025e-007 4.9141 -1.269 0.3591 6.62086e-032 -3.18055e-015 1.19271e-015 3.1477 -1.685 0.8462 3.13503e-007 -1.85587e-007 -2.21025e-007 0.8055 -1.585 0.7955 3.13503e-007 -1.85587e-007 -2.21025e-007 -1.7069 20.075 5.0056 13.5772 0.30973 12.5542 -13.6458 -0.047 -4.849 66.073 2.19487 13.9816 -28.3255 -0.9759 2.2888 -16.0227 -7.67218 17.4503 -22.1583 -0.53 10.8316 48.5955 40.998 -12.0919 -0.786 0.112 2.5817 7.5864e-031 3.97569e-015 -1.09332e-014 -0.3601 -0.878 4.2331 -2.60906e-006 -2.23227e-006 1.23345e-006 -1.8127 -1.216 2.2227 5.79325e-032 -7.95139e-016 4.17448e-015 -0.9571 1.114 1.7695 -4.96564e-032 1.59028e-015 1.78906e-015 -4.1246 0.487 4.1451 1.59028e-015 7.95139e-016 1.39149e-015 -3.4052 -1.454 2.7682 -2.60906e-006 -2.23227e-006 1.23345e-006 -1.4531 -1.795 1.2713 -1.98626e-031 3.18055e-015 3.57812e-015 -5.6954 0.21 2.1184 1.59028e-015 7.95139e-016 1.39149e-015 -3.9766 -1.54 2.3863 -2.60906e-006 -2.23227e-006 1.23345e-006 -1.4042 -1.926 1.125 -1.98626e-031 3.18055e-015 3.57812e-015 -2.0956 0.66 -0.3894 -4.96564e-032 1.59028e-015 1.78906e-015 -5.0395 -0.09 2.4971 1.59028e-015 7.95139e-016 1.39149e-015 -3.7921 -1.552 1.4806 -2.60906e-006 -2.23227e-006 1.23345e-006 -1.4655 -1.808 0.9609 -1.98626e-031 3.18055e-015 3.57812e-015 -4.9141 -1.269 0.3592 1.59028e-015 7.95139e-016 1.39149e-015 -3.1477 -1.685 0.8462 -2.60906e-006 -2.23227e-006 1.23345e-006 -0.8055 -1.585 0.7955 -1.98626e-031 3.18055e-015 3.57812e-015 8.367 -8.2066 0.5982 14.2222 -21.7934 -25.3582 2.1923 -43.463 -0.4932 -159.754 81.1605 176.081 0.7333 -45.8593 -2.6451 9.76369 62.9917 -37.6449 -8.367 -8.2066 0.5982 -96.4729 -43.1284 -122.684 -2.1923 -43.463 -0.4931 -157.282 60.4298 145.844 -0.7333 -45.8593 -2.6451 10.5443 -26.4829 12.2584 
